<svg width="16" height="16" viewBox="0 0 16 16" fill="none" xmlns="http://www.w3.org/2000/svg">
<path fill-rule="evenodd" clip-rule="evenodd" d="M8.5 0.133975C8.34798 0.0462063 8.17554 0 8 0C7.82446 0 7.65202 0.0462063 7.5 0.133975L1.5 3.71097C1.34799 3.79874 1.22175 3.92497 1.13398 4.07699C1.04621 4.229 1 4.40144 1 4.57697V11.423C1 11.5985 1.04621 11.7709 1.13398 11.923C1.22175 12.075 1.34799 12.2012 1.5 12.289L7.5 15.866C7.65202 15.9537 7.82446 15.9999 8 15.9999C8.17554 15.9999 8.34798 15.9537 8.5 15.866L14.5 12.289C14.652 12.2012 14.7783 12.075 14.866 11.923C14.9538 11.7709 15 11.5985 15 11.423V4.57697C15 4.40144 14.9538 4.229 14.866 4.07699C14.7783 3.92497 14.652 3.79874 14.5 3.71097L8.5 0.133975Z" fill="#35B572"/>
<path d="M4.6875 12.0437C4.50417 12.0437 4.34375 11.975 4.20625 11.8375C4.06875 11.7 4 11.5396 4 11.3562V4.48125C4 4.29791 4.06875 4.1375 4.20625 4C4.34375 3.8625 4.50417 3.79375 4.6875 3.79375H9.98125L12.25 6.0625V11.3562C12.25 11.5396 12.1812 11.7 12.0437 11.8375C11.9063 11.975 11.7458 12.0437 11.5625 12.0437H4.6875ZM4.6875 11.3562H11.5625V6.44554H9.60313V4.48125H4.6875V11.3562ZM5.82188 10.0844H10.4281V9.39687H5.82188V10.0844ZM5.82188 6.44062H8.125V5.75312H5.82188V6.44062ZM5.82188 8.2625H10.4281V7.575H5.82188V8.2625Z" fill="white"/>
</svg>
